<?xml version="1.0" standalone="no"?>
<!DOCTYPE svg PUBLIC "-//W3C//DTD SVG 20010904//EN"
 "http://www.w3.org/TR/2001/REC-SVG-20010904/DTD/svg10.dtd">
<svg version="1.0" xmlns="http://www.w3.org/2000/svg"
 width="434.000000pt" height="434.000000pt" viewBox="0 0 434.000000 434.000000"
 preserveAspectRatio="xMidYMid meet">
<metadata>
Created by potrace 1.14, written by Peter Selinger 2001-2017
</metadata>
<g transform="translate(0.000000,434.000000) scale(0.100000,-0.100000)"
fill="#000000" stroke="none">
<path d="M1433 3962 c-90 -48 -163 -91 -163 -97 0 -5 18 -38 40 -73 22 -34 40
-66 40 -71 0 -5 -42 -46 -92 -91 -51 -46 -100 -90 -108 -97 -13 -12 -9 -18 29
-51 l43 -37 -66 -133 c-36 -72 -66 -134 -66 -136 0 -2 18 -11 40 -20 l40 -16
0 -148 0 -148 32 -15 c27 -12 39 -32 91 -151 59 -136 60 -137 94 -140 35 -3
36 -4 80 -115 38 -95 48 -113 67 -113 11 0 125 18 251 40 127 22 235 40 240
40 6 0 17 -17 24 -37 8 -21 16 -44 19 -51 3 -8 -47 -37 -142 -82 -80 -38 -146
-73 -146 -78 0 -5 25 -42 55 -82 30 -40 55 -76 55 -79 0 -3 -11 -19 -24 -36
l-24 -30 69 -77 c58 -63 69 -81 64 -101 -5 -20 12 -50 95 -163 57 -77 107
-143 112 -149 6 -6 7 129 3 365 -6 318 -5 381 8 415 l15 40 13 -30 c11 -24 13
-106 11 -415 l-4 -385 116 154 c115 154 115 154 100 183 -18 35 -18 34 70 125
l60 63 -27 28 c-15 15 -27 31 -27 36 0 4 27 43 60 86 l61 80 -143 71 c-79 39
-145 73 -148 76 -7 7 32 73 44 73 6 -1 127 -22 268 -49 l258 -48 35 91 c19 50
39 103 44 118 8 21 17 27 47 30 l37 3 61 140 c57 129 64 140 94 147 l32 9 0
149 0 150 41 20 c22 12 39 25 37 30 -2 5 -32 65 -68 133 l-65 124 34 29 c19
16 39 32 45 37 11 7 -16 36 -146 152 l-67 60 46 73 c26 42 42 77 37 82 -14 13
-328 179 -332 175 -2 -2 -41 -212 -86 -468 l-83 -464 -83 -122 c-46 -67 -87
-124 -90 -126 -4 -3 -10 16 -14 41 -3 26 -23 74 -47 115 l-41 69 -50 0 c-38 0
-78 13 -175 55 -70 30 -128 53 -130 51 -3 -2 8 -28 22 -57 15 -29 34 -71 41
-93 16 -44 21 -32 -83 -199 l-24 -39 -62 84 c-34 46 -84 114 -111 152 l-50 70
-81 462 c-44 255 -83 465 -85 467 -3 3 -78 -34 -167 -81z m211 -346 c37 -208
65 -383 64 -388 -2 -6 -64 88 -138 208 -74 121 -162 262 -197 316 -35 53 -63
100 -63 105 0 7 261 144 267 139 1 0 31 -171 67 -380z m1355 304 c86 -46 120
-69 116 -79 -3 -8 -25 -44 -49 -80 -24 -36 -112 -176 -195 -310 -83 -135 -151
-241 -151 -236 0 13 130 749 135 763 6 17 -2 20 144 -58z m-1239 -867 c0 -3
-35 24 -77 59 -43 36 -172 141 -288 233 -115 93 -210 172 -210 175 0 4 42 43
93 89 l94 82 194 -317 c107 -174 194 -319 194 -321z m1443 505 l47 -43 -277
-225 c-152 -124 -286 -232 -297 -240 -20 -14 -20 -14 0 15 12 17 91 143 176
280 85 138 167 269 182 293 l27 43 47 -40 c26 -23 68 -60 95 -83z m-1631 -402
c162 -132 308 -259 326 -283 l33 -43 -53 24 c-29 13 -198 89 -376 170 -178 80
-328 146 -333 146 -6 0 -18 4 -28 10 -17 8 -13 19 41 125 55 108 61 115 78
103 11 -7 151 -121 312 -252z m1670 152 c65 -126 64 -124 36 -131 -13 -4 -185
-81 -383 -172 -198 -92 -367 -169 -375 -173 -8 -3 -1 13 16 36 25 33 634 542
650 542 2 0 27 -46 56 -102z m-1072 -204 c24 -13 24 -13 -17 -14 -24 0 -43 2
-43 4 0 2 -3 12 -7 21 -5 14 -2 16 18 10 13 -4 35 -14 49 -21z m-580 -160
c378 -173 387 -178 418 -222 17 -25 31 -47 29 -48 -1 -1 -166 36 -367 82 -201
46 -389 88 -417 94 l-53 11 0 92 c0 51 -3 109 -6 130 -4 20 -3 37 2 37 5 0
182 -79 394 -176z m1640 42 c0 -110 -2 -125 -17 -130 -32 -9 -804 -186 -814
-186 -5 0 6 21 24 46 32 44 45 51 413 219 208 96 382 174 387 174 4 1 7 -55 7
-123z m-835 21 c14 -24 25 -46 25 -49 0 -6 -94 -48 -107 -48 -20 0 -168 102
-175 120 -7 19 -3 20 112 20 l119 0 26 -43z m-229 -55 l22 -17 -61 -114 -60
-114 -24 29 c-12 16 -23 35 -23 43 0 22 104 191 118 191 4 0 17 -8 28 -18z
m114 -82 c0 -14 -23 -60 -29 -59 -3 0 -17 14 -30 30 -21 27 -22 33 -11 54 l13
24 28 -20 c16 -11 29 -24 29 -29z m160 35 c0 -8 -7 -15 -15 -15 -26 0 -18 20
13 29 1 1 2 -6 2 -14z m-28 -46 c29 -6 55 -13 57 -15 2 -1 -24 -39 -57 -83
l-60 -81 -36 44 c-20 25 -36 49 -36 56 0 6 9 29 20 50 23 44 30 46 112 29z
m-154 -119 c39 -47 71 -87 71 -90 0 -3 -14 -22 -32 -42 l-32 -38 -61 78 c-33
42 -64 82 -68 89 -8 14 31 96 43 91 4 -2 40 -41 79 -88z m-573 -25 c359 -82
382 -88 408 -117 16 -16 26 -32 24 -35 -3 -2 -172 -1 -375 3 l-369 7 -48 106
c-64 143 -61 134 -39 128 10 -3 190 -45 399 -92z m1424 -27 c-27 -62 -51 -113
-52 -114 -1 -2 -171 -6 -377 -10 l-374 -7 21 29 c20 28 38 33 410 120 213 51
396 92 405 93 14 1 8 -20 -33 -111z m-935 -62 l56 -73 -1 -124 c-1 -68 -3
-116 -6 -106 -6 25 -18 21 -29 -10 -6 -18 -8 11 -6 98 l4 124 -51 68 c-45 60
-57 97 -31 97 4 0 33 -33 64 -74z m-173 -105 l107 -6 -38 -44 -37 -43 -249
-43 c-137 -24 -249 -43 -249 -42 -3 5 -68 164 -72 175 -4 9 42 12 213 11 121
-1 267 -4 325 -8z m964 -8 c-4 -10 -20 -53 -37 -95 -21 -54 -35 -78 -46 -78
-10 0 -122 20 -250 43 l-232 43 -46 45 -45 44 198 5 c444 12 466 12 458 -7z
m-815 -101 c0 -74 -2 -80 -24 -90 -23 -10 -25 -8 -40 29 -9 22 -16 45 -16 51
0 10 68 88 77 88 2 0 3 -35 3 -78z m169 44 c36 -37 37 -60 6 -101 -12 -15 -19
-17 -33 -9 -13 8 -18 28 -20 78 -2 36 1 66 6 66 4 0 23 -15 41 -34z m111 -221
c83 -41 150 -78 150 -80 0 -11 -82 -115 -90 -115 -5 0 -55 50 -112 110 -69 75
-103 119 -104 135 -1 14 1 25 3 25 2 0 71 -34 153 -75z m-290 23 c-1 -15 -39
-63 -111 -138 l-111 -114 -19 24 c-42 54 -72 101 -68 105 8 7 293 145 301 145
5 0 8 -10 8 -22z m377 -320 c-4 -13 -99 -109 -103 -105 -13 13 -134 322 -134
341 1 16 29 -9 120 -104 66 -69 118 -128 117 -132z m-431 71 c-30 -74 -62
-152 -71 -173 l-16 -39 -55 54 c-30 29 -54 57 -54 62 0 5 55 67 123 137 88 93
123 123 125 110 2 -10 -22 -78 -52 -151z m264 -132 c33 -75 60 -142 60 -148 0
-10 -142 -211 -145 -206 -7 9 9 507 16 500 5 -5 36 -70 69 -146z m-202 -222
l-3 -126 -63 87 c-35 48 -66 93 -68 99 -5 11 35 108 103 250 l28 60 3 -122 c1
-67 1 -179 0 -248z"/>
<path d="M1440 1485 c-53 -15 -539 -234 -715 -323 -49 -25 -84 -47 -77 -49 17
-6 33 1 411 172 399 180 472 202 602 174 141 -30 269 -104 424 -244 182 -164
254 -206 560 -329 103 -42 199 -85 212 -97 17 -17 23 -33 23 -65 0 -37 -5 -47
-37 -73 -28 -23 -43 -29 -62 -25 -14 4 -140 44 -279 90 -230 76 -259 84 -330
84 -132 0 -139 -13 -15 -27 94 -10 129 -20 215 -56 133 -58 173 -72 288 -102
123 -32 156 -32 198 3 28 23 34 39 49 110 19 99 14 94 213 204 150 83 205 100
246 73 20 -13 24 -23 22 -48 -3 -27 -20 -44 -123 -125 -187 -145 -283 -206
-371 -236 -75 -25 -571 -106 -652 -106 -42 0 -76 18 -253 131 -385 247 -452
279 -546 264 -154 -25 -227 -60 -401 -192 -228 -174 -268 -207 -249 -211 10
-2 92 52 205 136 221 164 251 182 360 216 94 30 129 32 176 12 47 -20 381
-216 499 -293 160 -105 190 -109 454 -68 87 13 208 31 269 40 172 24 215 42
377 162 132 99 298 193 338 193 27 0 71 58 63 84 -22 70 -48 90 -131 99 -26 3
-56 16 -80 35 -53 43 -114 56 -188 43 -93 -17 -153 -14 -192 10 -40 25 -52 25
-453 -7 -118 -10 -227 -15 -241 -11 -15 4 -80 52 -145 108 -228 194 -339 250
-509 255 -69 3 -117 -1 -155 -11z m1500 -370 c0 -8 -3 -15 -6 -15 -3 0 -107
-13 -231 -30 -124 -16 -245 -30 -269 -30 -46 0 -114 22 -114 38 0 5 73 16 163
26 89 9 171 19 182 20 11 2 77 4 148 5 107 1 127 -1 127 -14z m363 -35 l27
-17 -72 -21 c-135 -40 -503 -97 -613 -96 -71 1 -165 31 -165 53 0 6 2 11 4 11
1 0 142 20 312 44 170 25 325 46 344 48 57 6 133 -4 163 -22z m187 -79 c14
-27 13 -66 -3 -80 -8 -6 -28 -14 -46 -17 l-33 -7 7 49 c4 27 8 55 10 62 7 19
53 14 65 -7z m-410 -45 c0 -6 -103 -72 -148 -95 -22 -11 -55 -21 -72 -21 -33
0 -156 57 -146 68 11 11 366 58 366 48z"/>
</g>
</svg>
